<svg width="64" height="64" viewBox="0 0 64 64" fill="none" xmlns="http://www.w3.org/2000/svg">
<g clip-path="url(#clip0_1273_4025)">
<path d="M32.17 -0.000366211C31.74 -0.000366211 31.32 0.0396338 30.89 0.119634L7.91999 4.44963C4.71999 5.04963 2.39999 7.81963 2.39999 11.0396V45.7696C2.39999 48.2896 3.83999 50.5996 6.11999 51.7496L29.08 63.2696C30.05 63.7596 31.11 63.9996 32.16 63.9996C33.21 63.9996 34.3 63.7496 35.27 63.2596L57.91 51.7596C60.17 50.6096 61.6 48.3096 61.6 45.7996V11.0196C61.6 7.80963 59.29 5.04963 56.09 4.43963L33.46 0.119634C33.03 0.0396338 32.6 -0.000366211 32.17 -0.000366211Z" fill="url(#paint0_linear_1273_4025)"/>
<path d="M32.15 5.32959C32.38 5.32959 32.61 5.34959 32.84 5.39959L53.49 9.33959C55.2 9.66959 56.44 11.1496 56.44 12.8696V44.5896C56.44 45.9396 55.68 47.1696 54.46 47.7896L33.8 58.2796C33.29 58.5396 32.71 58.6796 32.13 58.6796C31.55 58.6796 30.99 58.5396 30.48 58.2896L9.53999 47.7696C8.30999 47.1496 7.54999 45.9296 7.54999 44.5596V12.8696C7.54999 11.1496 8.79999 9.65959 10.51 9.33959L31.47 5.38959C31.7 5.34959 31.93 5.32959 32.15 5.32959Z" fill="#010101"/>
<path d="M30.56 14.4297V29.0297H16.21V14.4297H19.08V26.1097H21.95V14.4297H24.82V26.1097H27.69V14.4297H30.56ZM33.43 14.4297V17.3497H44.91V20.2697H33.43V23.1897H44.91V26.1097H33.43V29.0297H47.79V14.4297H33.43ZM47.79 34.8697V31.9497H33.43V46.5497H47.79V37.7897H39.18V40.7097H44.92V43.6297H36.31V34.8697H47.79ZM30.56 34.8697V31.9497H16.21V46.5497H30.57V37.7897H21.96V40.7097H27.7V43.6297H19.09V34.8697H30.57H30.56Z" fill="url(#paint1_linear_1273_4025)"/>
</g>
<defs>
<linearGradient id="paint0_linear_1273_4025" x1="32" y1="-0.000366211" x2="32" y2="63.9996" gradientUnits="userSpaceOnUse">
<stop stop-color="#FCE600" stop-opacity="0.9"/>
<stop offset="0.8" stop-color="#F79D21"/>
</linearGradient>
<linearGradient id="paint1_linear_1273_4025" x1="16.21" y1="30.4897" x2="47.79" y2="30.4897" gradientUnits="userSpaceOnUse">
<stop stop-color="#5BB947" stop-opacity="0.9"/>
<stop offset="1" stop-color="#A7D273"/>
</linearGradient>
<clipPath id="clip0_1273_4025">
<rect width="64" height="64" fill="white" transform="translate(0 -0.000366211)"/>
</clipPath>
</defs>
</svg>
